<svg xmlns="http://www.w3.org/2000/svg" viewBox="0 0 653.78 485.68"><defs><style>.cls-1{opacity:0.4;}.cls-2{fill:#7e5289;}.cls-3{opacity:0.5;}.cls-4{fill:#eaeaea;}.cls-5{fill:#ffb27d;}.cls-6{fill:#f59a6d;}.cls-7{fill:#f6f6f6;}.cls-8{fill:#331832;}.cls-9{fill:#482649;}.cls-10{fill:#efefef;}.cls-11{fill:#683b6b;}.cls-12{fill:#ef8062;}.cls-13{fill:#764678;}.cls-14{fill:#5f3563;}.cls-15{fill:#080435;}.cls-16{fill:#fff;}.cls-17{fill:#ff9e89;}.cls-18{fill:#e9d6ed;}</style></defs><g id="Layer_2" data-name="Layer 2"><g id="design"><g class="cls-1"><ellipse class="cls-2" cx="326.89" cy="434.39" rx="326.89" ry="51.28"/></g><g class="cls-3"><path class="cls-4" d="M626.53,426.69,331.23,238.9,284,272.54l29.07,157c-6.45,10.5,59.15,19.14,146.52,19.3s160.25-7.13,166.7-17.62C627.47,429.25,630.06,428.48,626.53,426.69Z"/></g><path class="cls-5" d="M191.5,208.65s-25.43-1.32-22.83-40.49c.78-11.79.09-12.1-1.14-16.71-3-11.35-31.83-129.38-31.83-129.38l94.11-7s18.32,83.37,30.59,88.17c17.11,6.69,29.25,26.23,42.06,43.1,6,7.92,16.33,23.56,19.32,29.84,3.14,6.62,25.12,30.85,18.43,38.09-14.45,15.62-36.17-21.26-46.1-28.59-2.48-1.83-10.51,68.68-20.32,69.87-3.45.42-28-23.61-31.94-23C212.36,237.55,191.5,208.65,191.5,208.65Z"/><path class="cls-6" d="M199.23,121.53a.88.88,0,0,0-.29.74,31.58,31.58,0,0,0,5,12.79,32.88,32.88,0,0,0,9.71,9.59,42.37,42.37,0,0,0,17.49,6.09.87.87,0,0,0,1-.74.86.86,0,0,0-.74-1,40.77,40.77,0,0,1-16.79-5.83,31.33,31.33,0,0,1-9.21-9.1,30.23,30.23,0,0,1-4.73-12,.86.86,0,0,0-.94-.77A.88.88,0,0,0,199.23,121.53Z"/><path class="cls-6" d="M333.93,204.31a.62.62,0,0,1-.41-.14c-1.72-1.33-10.25-8.12-9.58-11.2a6.08,6.08,0,0,1,3.14-4.25.67.67,0,0,1,.54,1.23,4.7,4.7,0,0,0-2.37,3.3c-.36,1.66,5.1,6.77,9.09,9.86a.68.68,0,0,1,.12.94A.67.67,0,0,1,333.93,204.31Z"/><path class="cls-5" d="M264.49,247.17s-8.85,37.61-27,34.25S240.79,233,240.79,233Z"/><path class="cls-7" d="M133.33,46.17,147.4,91.59s64.39,17.32,104.88-14.12l-5-37.42Z"/><rect class="cls-8" x="146.24" y="155.79" width="173.62" height="51.99" transform="translate(205.9 -112.53) rotate(46.77)"/><rect class="cls-9" x="205.97" y="184.95" width="121.06" height="64.85" transform="translate(242.37 -125.69) rotate(46.77)"/><ellipse class="cls-8" cx="174.83" cy="119.85" rx="26" ry="11.93" transform="translate(-34.64 152.25) rotate(-43.23)"/><ellipse class="cls-9" cx="223.75" cy="171.89" rx="32.43" ry="14.89" transform="translate(-57.01 199.87) rotate(-43.23)"/><ellipse class="cls-10" cx="307.61" cy="261.11" rx="32.43" ry="14.89" transform="translate(-95.36 281.52) rotate(-43.23)"/><path class="cls-11" d="M308.27,225.16S262.56,173,258,174.33s22.07,35,34.78,46.12S312.12,229.53,308.27,225.16Z"/><path class="cls-5" d="M173.2,178.31,194,168.11a11.66,11.66,0,0,1,16.34,2.15h0a11.66,11.66,0,0,1-2.15,16.35L195,196.77c-9.1,6.78-17.36,10-23.66,1.79C162.4,186.94,168.27,182.1,173.2,178.31Z"/><path class="cls-6" d="M200.62,187.38c-2.64,0-6.31-4.22-7.83-7.42s-.62-4.74.09-5.31c2.86-2.29,9.17-3.8,9.58-3.9a2.54,2.54,0,0,1,2.09.53c2.06,1.45,4.46,5.77,4.67,8.4.28,3.46-4.7,6.9-8.12,7.65A2,2,0,0,1,200.62,187.38Zm2.32-14.94h-.07c-.07,0-6.32,1.5-8.9,3.57-.49.39-.34,1.64.4,3.19,1.62,3.41,5.16,6.77,6.35,6.41,2.74-.6,6.94-3.5,6.76-5.8-.17-2.1-2.3-6-3.94-7.1A1.21,1.21,0,0,0,202.94,172.44Z"/><path class="cls-6" d="M171.59,180.46a.87.87,0,0,1-.46-1.62c.82-.5,20.15-12.34,25.91-13.66,6-1.34,9.56.9,9.71,1a.87.87,0,0,1,.26,1.21.86.86,0,0,1-1.2.26c-.08-.05-3.22-2-8.39-.76-5.48,1.25-25.18,13.32-25.38,13.45A.92.92,0,0,1,171.59,180.46Z"/><path class="cls-5" d="M181.6,203.54l23.6-14.21a13.87,13.87,0,0,1,19.59.88h0a13.86,13.86,0,0,1-.88,19.58l-14.65,13.39c-10.09,9-19.54,13.65-27.85,4.54C169.68,214.87,176.14,208.53,181.6,203.54Z"/><path class="cls-6" d="M214.72,211.33c-3.06,0-7.56-4.43-9.61-7.92-1.59-2.7-1.75-4.87-.46-6.1,3.13-3,10.43-5.41,10.88-5.56a2.82,2.82,0,0,1,2.4.4c2.56,1.49,5.8,6.3,6.32,9.36.67,4-4.81,8.49-8.74,9.7A2.61,2.61,0,0,1,214.72,211.33Zm1.53-18a.25.25,0,0,0-.13,0h0c-.07,0-7.36,2.44-10.24,5.18-.61.59-.31,2.09.77,3.94,2.37,4,6.87,7.54,8.37,7,3.24-1,8-4.95,7.53-7.74-.43-2.57-3.34-6.9-5.47-8.14A1.86,1.86,0,0,0,216.25,193.37Z"/><path class="cls-6" d="M197.89,194.61a.86.86,0,0,1-.67-.32.87.87,0,0,1,.11-1.23c.44-.37,10.88-8.95,16.48-8.2a.87.87,0,0,1,.75,1,.89.89,0,0,1-1,.75c-4.05-.55-12.3,5.46-15.13,7.81A.85.85,0,0,1,197.89,194.61Z"/><path class="cls-5" d="M201.17,226l21.33-17.44A13.86,13.86,0,0,1,242,206.6h0a13.86,13.86,0,0,1,1.94,19.51l-12.57,15.35c-8.7,10.31-17.39,16.31-26.92,8.49C191,238.91,196.48,231.71,201.17,226Z"/><path class="cls-6" d="M234.56,229c-3.05,0-7.74-3.51-10.13-6.5-2-2.45-2.44-4.57-1.34-6,2.67-3.39,9.54-6.85,10-7.07a2.84,2.84,0,0,1,2.43.06c2.74,1.1,6.64,5.4,7.59,8.35,1.24,3.86-3.54,9.09-7.25,10.86A3,3,0,0,1,234.56,229Zm-.45-18a.52.52,0,0,0-.23.05l0,0c-.06,0-6.93,3.46-9.38,6.58-.53.66,0,2.12,1.33,3.8,2.92,3.65,7.88,6.45,9.28,5.74,3.06-1.46,7.21-6.06,6.35-8.74-.8-2.48-4.3-6.35-6.59-7.27A2.2,2.2,0,0,0,234.11,211Z"/><path class="cls-6" d="M206.51,222.5a.89.89,0,0,1-.59-.23.86.86,0,0,1-.06-1.23c.69-.77,16.75-18.45,26.2-18.45a5,5,0,0,1,.55,0,.87.87,0,1,1-.13,1.74l-.46,0c-8.64,0-24.7,17.7-24.86,17.88A.89.89,0,0,1,206.51,222.5Z"/><path class="cls-8" d="M260.9,53.45c-29.79,18.25-78,20.93-112.77,19.48-7.81-.32-15.13-.9-18.44-1.27L105.18,1.93C146,5.07,186.53,6.41,227.54,2.6c20.38-1.89,29.1-2.41,31-2.6Z"/><path class="cls-5" d="M147.27,316.39c-1.08,1.73-2.45,5.64-3.5,7.39-.46.76-1.81,3.42-1.13,4s2.67-1.1,3.56-2c.37,5.86,3.48,14.25,3.6,1.91h0c.1,1.25.67,8.2,2.26,7.41,1.4-.69,1.2-5.68,1-7.74h.06c.32,2.08,1.24,7.07,2.36,6,1.41-1.38,1.31-6.85,1.31-6.85s.27,7,2.09,5.6c1-.78.46-4.77.07-7.25h0c-.09-.52-.16-1-.21-1.32a3.73,3.73,0,0,0-.19-.75,30.3,30.3,0,0,0-2.18-6.59,4.31,4.31,0,0,0-4.58-2.89C149.56,313.45,147.74,315.64,147.27,316.39Z"/><path class="cls-12" d="M144.54,317.23c-13.08-8.59,1-35.19-4.47-53.55a53,53,0,0,0-2.89-8.22c-.87-1.91,1.49-5.62,4.73-7.15,3-1.44,10.34-.49,10.92.47,8.8,14.69,11.65,38.81,7.26,69.6C160.09,318.38,150.15,320.92,144.54,317.23Z"/><path class="cls-8" d="M125.11,428.64s.11,4.44,3.11,5.68,11.68,2.38,8.44,5.23c-1.87,1.64-10.64.58-13.12.58s-4.81,1.08-6.65-.58c-2-1.82,0-10.91,0-10.91a9.87,9.87,0,0,0,4.06,1.07A7.87,7.87,0,0,0,125.11,428.64Z"/><path class="cls-13" d="M151,294.92s.59,20-5.79,58.36c-4.6,27.7-10,55.6-12.71,69a10.45,10.45,0,0,1-9.75,8.48l-2.56.1a8.76,8.76,0,0,1-9-9.49l6.47-90.51,1.6-29.79Z"/><path class="cls-8" d="M80,428.64s.11,4.44,3.11,5.68,11.68,2.38,8.44,5.23c-1.87,1.64-10.64.58-13.12.58s-4.81,1.08-6.65-.58c-2-1.82,0-10.91,0-10.91a9.87,9.87,0,0,0,4.06,1.07A7.87,7.87,0,0,0,80,428.64Z"/><path class="cls-13" d="M125.62,294.92s.5,17-11.56,55.39c-8.7,27.7-21.13,58.57-25.78,71.95a12.63,12.63,0,0,1-11,8.48l-2.58.1c-5.19.21-8.72-4.22-7.56-9.49L87,330.84l6-29.79Z"/><path class="cls-8" d="M87.74,316.84c.06,2.41,14.65,3.37,32.69,2.81s32.46-3.06,32.4-5.47-14.58-3.83-32.62-3.27S87.67,314.43,87.74,316.84Z"/><path class="cls-12" d="M92.15,248.54s3.19-12.65,26.73-12.78c34-.18,30.81,31,34,78.42,0,0-33.44-4.73-65.11,2.07C87.72,316.25,84.78,267.86,92.15,248.54Z"/><path class="cls-12" d="M81.57,248.51l17.27,6.72s33.66,3.06,42.6,1.59,11.39-8,11.39-8a49.27,49.27,0,0,0-25.7-12.48c-1.52-.25-3.09-.43-4.73-.54a46.49,46.49,0,0,0-8.18.17C93.72,238.24,81.57,248.51,81.57,248.51Z"/><path class="cls-13" d="M150,316.13s-19.55-5.75-60,2.14l-.31,5.83L149,326.19Z"/><path class="cls-12" d="M67.81,311.47c5.06-14.8,25.92-51.7,27.76-53.55,1.47-1.49.53-5.78-2-8.34-2.36-2.39-7.25-4.22-8.25-3.72-14.18,7-31.31,39.56-33,60.41Z"/><path class="cls-5" d="M111.24,236.32c2.44,3,6.81,2.57,10.23,1.06,2.75-1.21,2.36-1.19,2-1.63-.93-1.1-1.7-1.36-1.75-2.62l-.07-1.65v-.21l-.08-2.15-.16-3.71-.4-9.76-3,9.81-.52,1.67-1.77,5.74C115.07,234.72,111.26,236.31,111.24,236.32Z"/><path class="cls-8" d="M117.06,228.6a6.73,6.73,0,0,0,4.57,2.88v-.21l-.08-2.15C119.85,229,117.06,228.6,117.06,228.6Z"/><path class="cls-13" d="M137,294.09s-1,9-7.39,13.89a27.59,27.59,0,0,1-6.87-6.87,16,16,0,0,1-2.92-7,52,52,0,0,1-.12-6.26c.09-2.3.25-5,.4-8,.28-5.21.67-11.13,1-16.71.15-3.07.28-6,.34-8.71.12-5.68,0-10.12-.74-11.69l3.07-.95s1.32,3.41,3.13,8.59c.67,2,1.44,4.23,2.23,6.62,1.23,3.84,2.55,8.1,3.75,12.39.64,2.36,1.28,4.76,1.81,7.09a87.56,87.56,0,0,1,2.26,13.27A26,26,0,0,1,137,294.09Z"/><path class="cls-8" d="M52.31,306.27c-.63,2.17,2.38,5,6.72,6.28s8.36.6,9-1.57-2.38-5-6.72-6.28S52.94,304.1,52.31,306.27Z"/><path class="cls-8" d="M153,314.19l-.4,0c0-.33,2.75-33.79-6.94-54.47l.36-.17C155.78,280.3,153.05,313.86,153,314.19Z"/><path class="cls-8" d="M87.91,271.49l-.35-.18c4.9-9.75,8.53-10.34,8.69-10.35l0,.39S92.69,262,87.91,271.49Z"/><path class="cls-14" d="M130.64,213.15a12.85,12.85,0,0,1-.43,5.34c-.86,2.92-3.29-4.62-3.29-4.62Z"/><ellipse class="cls-5" cx="121.79" cy="219.82" rx="8.72" ry="10.52" transform="translate(-10.97 6.44) rotate(-2.9)"/><path class="cls-14" d="M113.1,217.24l4.24-.1a3.07,3.07,0,0,0,2.38-1.19c1-1.28,2.07-1.89,6-1.43,5,.58,8.48-2.12,9.23-4.68s-1.64-4.61-4.24-3.55-1.28-1.95-3.65-2.47c-4.44-1-5.56,2.41-9.23,2-4.8-.54-13.73,2.43-10.31,11.24Z"/><path class="cls-15" d="M123,219.09a.16.16,0,0,0,.09-.12.18.18,0,0,0-.14-.21,1.92,1.92,0,0,0-2.13,1,.18.18,0,0,0,.06.24.2.2,0,0,0,.25-.06,3,3,0,0,1,1.76-.83A.14.14,0,0,0,123,219.09Z"/><path class="cls-15" d="M122.07,221.29c.07.42.38.71.68.65s.48-.44.4-.85-.38-.71-.68-.65A.68.68,0,0,0,122.07,221.29Z"/><path class="cls-15" d="M129.22,218.69a.15.15,0,0,0,.1-.09.24.24,0,0,0-.08-.24,1.26,1.26,0,0,0-1.8.29.23.23,0,0,0,0,.25.14.14,0,0,0,.2,0,1.83,1.83,0,0,1,1.49-.24A.12.12,0,0,0,129.22,218.69Z"/><path class="cls-15" d="M127.7,220.58c0,.42.19.78.49.8s.58-.29.61-.72-.19-.78-.49-.8S127.73,220.16,127.7,220.58Z"/><path class="cls-14" d="M107.5,217.07s2.4,6.51,6.49,7.3c0,0-2.95-5.05,4.31-7.4C118.3,217,111.93,215.44,107.5,217.07Z"/><path class="cls-5" d="M113,221a1.71,1.71,0,1,0-.49-2.5A1.81,1.81,0,0,0,113,221Z"/><path class="cls-16" d="M127.22,213.24l0-.12s5.47-1.16,5.91-3.86a1.8,1.8,0,0,0-.27-1.59c-.49-.5-1.46-.36-2.32-.22l-.38.05,0-.12.39,0c.88-.14,1.89-.29,2.41.25a1.88,1.88,0,0,1,.31,1.7C132.78,212.06,127.45,213.19,127.22,213.24Z"/><path class="cls-16" d="M118.09,206.91a11.48,11.48,0,0,1-2.42-.27l0-.11c5.1,1.11,7.84-1.6,7.86-1.62l.08.08A8.12,8.12,0,0,1,118.09,206.91Z"/><path class="cls-8" d="M117.15,341.61l-.49-.12c0-.06,1.43-6,2.66-10.41s6-5.89,6.24-5.95l.14.48s-4.7,1.37-5.9,5.6S117.16,341.54,117.15,341.61Z"/><path class="cls-13" d="M118.94,237.86s4.14-1.27,5.24-.28.29,5.53-1.62,5.94S117.06,239,118.94,237.86Z"/><path class="cls-17" d="M121.37,236.79s-5.4-1.91-6.45-3.81-6.64,2.5-6.55,3.81,10.17,8.62,10.83,7.7S122.69,238,121.37,236.79Z"/><path class="cls-17" d="M121.37,236.79s.81-2,.42-3.09c0,0-.26-.95.56-.89S127.65,236,128,237s.47,5.43-1,5.75-4.94-4.47-5.35-5A1.31,1.31,0,0,1,121.37,236.79Z"/><path class="cls-8" d="M122.53,243.62a3.68,3.68,0,0,1-2.29-1.12l.14-.14a3.54,3.54,0,0,0,2.15,1.06h0c1.11,0,1.77-2.41,1.78-2.44l.19.05c0,.11-.71,2.56-2,2.59Z"/><path class="cls-8" d="M61.19,330.15l2.22.12.51-9a4.94,4.94,0,0,0-3.73-4.95l-7.11-1.75a4.94,4.94,0,0,0-5.32,2.11l0,0-5.31,9,1.91,1.13,5.3-9a2.72,2.72,0,0,1,2.91-1.14l7.11,1.75a2.69,2.69,0,0,1,2,2.69Z"/><path class="cls-8" d="M31.69,351.28l32.17,11.06a4.34,4.34,0,0,0,5.52-2.65l8-22.73a4.35,4.35,0,0,0-3-5.64L34.7,320.66a4.33,4.33,0,0,0-5.47,4.07l-.5,22.33A4.37,4.37,0,0,0,31.69,351.28Z"/><polygon class="cls-13" points="49.86 341.22 29.18 327.63 29.46 327.2 50.01 340.71 75.96 340.31 75.97 340.82 49.86 341.22"/><path class="cls-13" d="M49,343h0a1.42,1.42,0,0,0,1.71-1l.31-1.32a1.43,1.43,0,0,0-1-1.71h0a1.41,1.41,0,0,0-1.7,1L48,341.28A1.43,1.43,0,0,0,49,343Z"/><path class="cls-5" d="M66,317.67a40.71,40.71,0,0,1-.6-4.34c-.14-1.3-.45-3.94-.58-4.8-.32-2-5.13-3.44-7.06-2.82s-3.16,3.19-5.18,6.64a3.1,3.1,0,0,0-.39.63c-.84,1.71-2.34,4-1.46,5.2s2.13-.27,2.68-1.18c-.43.85-1.1,2.53-.45,3.72s2.44-1.3,3.26-2.62h0c-.65,1.21-1.72,3.6-.7,4.57,1.2,1.14,3.21-2.44,3.71-3.25l.1,0c-.52,5.67,2.33,3.44,3.85-.65.59,1.07,2,3.08,2.7,2.82S66.17,318.5,66,317.67Z"/><path class="cls-16" d="M125.79,225.69a.68.68,0,0,1-1.36,0,.68.68,0,0,1,1.36,0Z"/><ellipse class="cls-18" cx="470.96" cy="431.71" rx="158.9" ry="26.81"/><polygon class="cls-16" points="525.56 437.77 389.81 437.77 417.91 425.66 562.4 425.66 525.56 437.77"/><polygon class="cls-16" points="496.91 451.54 545.79 417.25 605.71 432.45 496.91 451.54"/></g></g></svg>